<svg xmlns="http://www.w3.org/2000/svg" width="649.238" height="314.586" viewBox="0 0 649.238 314.586">
  <g id="Group_169" data-name="Group 169" transform="translate(-8257.762 -18736)">
    <text id="ANYREP" transform="translate(8316 18921)" fill="#1b9cf3" font-size="192" font-family="FuturaBT-ExtraBlackCondItalic, Futura XBlkCnIt BT" font-weight="900" font-style="italic" letter-spacing="-0.006em"><tspan x="0" y="0">ANYREP</tspan></text>
    <text id="Appliance_Repairs" data-name="Appliance Repairs" transform="translate(8343 18980)" fill="#0c4165" font-size="63" font-family="FuturaBT-ExtraBlackCondItalic, Futura XBlkCnIt BT" font-weight="900" font-style="italic" letter-spacing="-0.006em"><tspan x="0" y="0">Appliance Repairs</tspan></text>
    <path id="Path_61" data-name="Path 61" d="M-.085,19.914,36.5,7.148l.154,1.519.769,84.187L-1.128,146.24-.146,21.967Z" transform="matrix(0.94, 0.342, -0.342, 0.94, 8308.875, 18900.365)" fill="#1b9cf3"/>
    <path id="Path_62" data-name="Path 62" d="M52,0S544.833-1.848,548,0s5.434,15.85,0,17S-.237,37.375-.237,37.375Z" transform="translate(8258 19000)" fill="#1b9cf3"/>
    <path id="Path_66" data-name="Path 66" d="M-1.333,6.621l35.68.648L33.1,11.053l-36.36.779Z" transform="translate(8305 18912)" fill="#1b9cf3"/>
    <path id="Path_67" data-name="Path 67" d="M-16.961,9.788l8.052-5.642L45.23,6.127l-6.314,4.485,5.662,3.965-52.1,1.193Z" transform="matrix(0.819, -0.574, 0.574, 0.819, 8270.295, 19016.613)" fill="#1b9cf3"/>
  </g>
</svg>
